<?xml version="1.0" encoding="utf-8"?>
<!-- Generator: Adobe Illustrator 27.0.0, SVG Export Plug-In . SVG Version: 6.00 Build 0)  -->
<svg version="1.1" id="Layer_1" xmlns="http://www.w3.org/2000/svg" xmlns:xlink="http://www.w3.org/1999/xlink" x="0px" y="0px"
	 viewBox="0 0 1000 1000" style="enable-background:new 0 0 1000 1000;" xml:space="preserve">
<style type="text/css">
	.st0{fill:#333333;}
	.st1{fill:#808080;}
</style>
<g>
	<g>
		<g>
			<path class="st0" d="M516.04,110.06c-25.36-4.13-52.91-6.94-74.25,10.41c-20.62,16.76-25.34,44.58-31.12,69
				c-11.28,47.65-30.29,119.71-90.74,122.92c-19.17,1.02-25,24.51-9.52,35.13c13.49,9.26,27.63,10.42,28.77,29.37
				c1.12,18.6-7.16,37.09-10.7,55.09c-4.76,24.18-7.17,50.6,2.09,74.05c6.05,15.33,16.9,27.99,31.51,35.79
				c5.71,3.05,11.89,5.35,18.05,7.32c1.99,0.64,4,1.26,6.02,1.78c4.01,1.04,3.94,1.43,1.54,0.26c21.72,10.6,40.86-21.9,19.03-32.56
				c-4.4-2.15-8.8-3.46-13.42-4.9c-2.41-0.75-4.83-1.47-7.22-2.29c-4.18-1.43-0.11,0.43-4.22-1.79
				c-10.82-5.84-16.99-13.21-19.26-28.74c-4.44-30.27,9.51-59.03,13.24-88.48c2.05-16.11,1.13-33.23-7.28-47.61
				c-9.37-16-24.75-20.01-39.11-29.86c-3.17,11.71-6.34,23.42-9.52,35.13c54.39-2.89,91.42-44.88,110.31-92.72
				c10.33-26.17,15.1-53.81,22.32-80.88c2.78-10.44,5.89-23.28,16.08-28.98c10.74-6.02,25.94-2.95,37.38-1.09
				C529.75,150.29,539.96,113.96,516.04,110.06L516.04,110.06z"/>
			<path class="st0" d="M582.74,538.88c25.36,4.13,52.91,6.94,74.25-10.41c20.62-16.76,25.34-44.58,31.12-69
				c11.28-47.65,30.29-119.71,90.74-122.92c19.17-1.02,25-24.51,9.52-35.13c-13.49-9.26-27.63-10.42-28.77-29.37
				c-1.12-18.6,7.16-37.09,10.7-55.09c4.76-24.18,7.17-50.6-2.09-74.05c-6.05-15.33-16.9-27.99-31.51-35.79
				c-5.71-3.05-11.89-5.35-18.05-7.32c-1.99-0.64-4-1.26-6.02-1.78c-4.01-1.04-3.94-1.43-1.54-0.26
				c-21.72-10.6-40.86,21.9-19.03,32.56c4.4,2.15,8.8,3.46,13.42,4.9c2.41,0.75,4.83,1.47,7.22,2.29c4.18,1.43,0.11-0.43,4.22,1.79
				c10.82,5.84,16.99,13.21,19.26,28.74c4.44,30.27-9.51,59.03-13.25,88.48c-2.05,16.11-1.13,33.23,7.28,47.61
				c9.37,16,24.75,20.01,39.11,29.86c3.17-11.71,6.34-23.42,9.52-35.13c-54.39,2.89-91.42,44.88-110.31,92.72
				c-10.33,26.17-15.1,53.81-22.32,80.88c-2.78,10.44-5.89,23.28-16.08,28.98c-10.74,6.02-25.94,2.95-37.38,1.09
				C569.02,498.66,558.81,534.98,582.74,538.88L582.74,538.88z"/>
		</g>
		<g>
			<path class="st1" d="M562.77,338.09c-10.32,6.48-19.77-9.84-9.52-16.28c22.75-14.29,45.51-28.57,68.26-42.86
				c-22.75-11.73-45.51-23.47-68.26-35.2c-10.8-5.57-1.25-21.83,9.52-16.28c24.53,12.65,49.06,25.3,73.58,37.95
				c-16.91-33.66-52.78-56.15-93.6-53.44c-47.88,3.17-86.82,41.76-90.38,89.61c-0.29,3.96-0.32,7.87-0.15,11.72
				c0.41-0.32,0.78-0.66,1.27-0.91c27.5-14.18,55-28.36,82.49-42.55c10.78-5.56,20.3,10.72,9.52,16.28
				c-22.75,11.73-45.51,23.47-68.26,35.2c22.75,14.29,45.51,28.57,68.26,42.86c10.26,6.44,0.79,22.75-9.52,16.28
				c-27.26-17.11-54.51-34.23-81.77-51.34c5.01,23.83,18.7,44.46,37.66,58.37c15.73,11.54,24.67,30.17,24.67,49.67v0.01h65.67
				c0-19.98,9.81-38.44,25.75-50.49c23.5-17.75,38.7-45.93,38.7-77.66c0-7.58-0.89-14.95-2.53-22.03
				C617.01,304.04,589.89,321.07,562.77,338.09z"/>
		</g>
	</g>
	<g>
		<g>
			<path class="st0" d="M207.13,591.24v11.46h25.49v9.88h-25.49v11.69h29.11v9.88h-41.02v-52.79h40.19v9.88H207.13z"/>
			<path class="st0" d="M296.11,634.15l-25.56-33.86v33.86h-11.39v-52.79h10.86l25.64,33.93v-33.93h11.31v52.79H296.11z"/>
			<path class="st0" d="M371.51,586.57l-4.6,9.88c-5.58-3.32-12.22-5.43-16.44-5.43c-4,0-6.71,1.43-6.71,4.3
				c0,9.73,28.13,4.3,28.05,23.3c0,10.33-8.97,15.91-20.66,15.91c-8.67,0-17.34-3.32-23.3-8.37l4.75-9.73
				c5.43,4.83,13.12,7.92,18.7,7.92c4.9,0,7.84-1.81,7.84-5.05c0-9.96-28.13-4.15-28.13-22.85c0-9.58,8.22-15.61,20.44-15.61
				C358.84,580.83,366.23,583.1,371.51,586.57z"/>
			<path class="st0" d="M393.76,634.15v-52.79h11.92v52.79H393.76z"/>
			<path class="st0" d="M467.88,634.15l-25.56-33.86v33.86h-11.39v-52.79h10.86l25.64,33.93v-33.93h11.31v52.79H467.88z"/>
			<path class="st0" d="M515.83,591.24v11.46h25.49v9.88h-25.49v11.69h29.11v9.88h-41.02v-52.79h40.19v9.88H515.83z"/>
			<path class="st0" d="M646.29,612.05c0,13.95-9.13,22.62-23.68,22.62c-14.63,0-23.98-8.67-23.98-22.62v-30.69h11.92v30.69
				c0,7.62,4.98,12.22,12.07,12.22c7.09,0,11.76-4.6,11.76-12.22v-30.69h11.92V612.05z"/>
			<path class="st0" d="M717.09,634.15v-35.59l-14.03,30.24h-7.76l-14.03-30.24v35.59h-10.78v-52.79h13.35l15.38,32.28l15.31-32.28
				h13.27v52.79H717.09z"/>
			<path class="st0" d="M763.46,623.89l-4.15,10.26h-12.29l22.93-52.79h12.29l22.55,52.79h-12.74l-4.15-10.26H763.46z
				 M775.75,593.81l-8.37,20.51h16.66L775.75,593.81z"/>
		</g>
		<g>
			<g>
				<g>
					<path class="st0" d="M34.28,817.77c-2.39-5.28-4.52-11.34-6.39-18.16c-1.53-5.8-2.78-12.62-3.71-20.46
						c-0.94-7.84-0.89-16.53,0.13-26.08c1.02-9.37,2.69-18.75,4.98-28.13c2.3-9.38,5.67-18.16,10.1-26.34
						c4.43-8.18,10.06-15.38,16.88-21.61c6.82-6.22,15.25-10.95,25.32-14.19c7.5-2.39,14.36-3.32,20.59-2.81
						c6.22,0.51,11.76,2.05,16.62,4.6c4.86,2.56,8.99,5.84,12.4,9.85c3.41,4.01,6.09,8.14,8.05,12.4c1.96,4.26,3.15,8.53,3.59,12.79
						c0.42,4.26,0.12,7.84-0.9,10.74c-1.37,3.75-3.28,7.03-5.75,9.85c-2.47,2.81-5.5,4.73-9.08,5.75
						c-3.58,1.02-7.72,0.77-12.41-0.77c-4.69-1.53-9.85-4.77-15.47-9.72c-3.75-3.41-7.59-4.94-11.51-4.6
						c-3.92,0.34-7.54,2.05-10.87,5.11c-3.33,3.07-6.31,7.25-8.95,12.53c-2.65,5.29-4.52,11.3-5.63,18.03
						c-1.11,6.74-1.37,13.85-0.77,21.35c0.6,7.5,2.34,15,5.24,22.51c2.9,7.5,5.63,13,8.19,16.5c2.56,3.5,5.07,5.67,7.54,6.52
						c2.47,0.85,4.9,0.64,7.29-0.64c2.39-1.28,4.82-2.85,7.29-4.73c2.47-1.87,5.12-3.84,7.93-5.88c2.82-2.05,5.92-3.49,9.33-4.35
						c3.75-0.85,7.55-0.29,11.38,1.66c3.84,1.96,7.12,4.86,9.85,8.7c2.72,3.84,4.56,8.23,5.5,13.17c0.93,4.95,0.42,9.89-1.53,14.83
						c-1.96,4.95-5.71,9.59-11.26,13.94c-5.54,4.35-13.51,7.8-23.91,10.36c-5.97,1.53-11.55,2.08-16.75,1.66
						c-5.2-0.43-9.97-1.49-14.32-3.2c-4.35-1.7-8.36-3.92-12.02-6.65c-3.67-2.72-6.95-5.63-9.85-8.69
						C44.59,836.44,38.88,827.83,34.28,817.77z"/>
					<path class="st0" d="M183.62,663.31c12.62-2.39,24.08-2.98,34.4-1.79c10.32,1.19,19.39,3.62,27.24,7.29
						c7.84,3.67,14.49,8.36,19.95,14.07c5.45,5.71,9.63,11.85,12.53,18.41c2.89,6.56,4.51,13.26,4.86,20.08
						c0.34,6.82-0.6,13.21-2.81,19.18c-3.24,8.53-6.82,15-10.74,19.44c-3.92,4.43-9.29,8.35-16.11,11.76
						c7.33,6.82,14.07,13.68,20.21,20.59c6.14,6.91,11.12,13.64,14.96,20.2c3.83,6.57,6.14,12.83,6.91,18.8
						c0.76,5.97-0.56,11.34-3.97,16.11c-4.27,6.14-8.91,9.51-13.94,10.1c-5.03,0.6-10.02-0.72-14.96-3.96
						c-4.95-3.24-9.64-8.01-14.07-14.32c-4.44-6.31-8.1-13.38-11-21.23c-3.24-8.7-6.57-15.17-9.97-19.44
						c-3.41-4.26-6.57-7.33-9.46-9.2c-3.24-2.05-6.48-2.98-9.72-2.81c2.21,12.11,3.07,22.76,2.56,31.97
						c-0.51,9.21-2.09,16.79-4.73,22.76c-2.65,5.97-6.1,10.27-10.36,12.91c-4.27,2.65-8.95,3.54-14.07,2.69
						c-5.63-1.02-9.94-2.73-12.92-5.12c-2.98-2.39-4.94-5.5-5.88-9.33c-0.94-3.84-0.9-8.35,0.12-13.55
						c1.02-5.2,2.73-11.12,5.12-17.77c2.21-6.14,3.79-12.49,4.73-19.05c0.94-6.56,1.19-13.68,0.77-21.35
						c-0.43-7.67-1.45-16.11-3.07-25.32c-1.62-9.2-3.88-19.6-6.78-31.2c-1.37-5.79-2.14-10.95-2.3-15.47
						c-0.17-4.52,0.08-8.48,0.77-11.89c0.68-3.41,1.7-6.39,3.07-8.95c1.36-2.56,2.82-4.69,4.35-6.39
						C173.05,667.4,177.82,664.68,183.62,663.31z M206.38,745.91c4.09-0.17,8.01-0.93,11.76-2.3c3.24-1.19,6.6-2.94,10.1-5.24
						c3.49-2.3,6.43-5.66,8.82-10.1c2.21-3.92,2.64-7.71,1.28-11.38c-1.37-3.66-3.67-6.95-6.91-9.85c-3.24-2.9-6.99-5.33-11.25-7.29
						c-4.26-1.96-8.23-3.24-11.89-3.84c-3.67-0.6-6.65-0.42-8.95,0.51c-2.3,0.94-3.11,2.86-2.43,5.75
						c1.02,4.27,2.13,8.91,3.32,13.94c1.19,5.03,2.21,9.76,3.07,14.19C204.33,735.6,205.36,740.8,206.38,745.91z"/>
					<path class="st0" d="M333.22,693.49c2.73-6.14,5.71-11.51,8.95-16.11c1.37-1.87,2.9-3.71,4.6-5.5c1.7-1.79,3.46-3.32,5.24-4.6
						c1.79-1.28,3.71-2.17,5.75-2.69c2.05-0.51,4.18-0.42,6.39,0.26c5.46,1.54,8.61,4.82,9.46,9.85c0.85,5.03,0.47,11.17-1.15,18.41
						c-1.62,7.25-3.96,15.22-7.03,23.91c-3.07,8.7-5.71,17.61-7.93,26.73c-2.22,9.12-3.5,18.12-3.84,26.98
						c-0.34,8.87,1.37,16.97,5.11,24.3c5.28,10.57,8.78,19.95,10.49,28.13c1.7,8.18,2.05,15.05,1.02,20.59
						c-1.02,5.54-3.11,9.76-6.27,12.66c-3.15,2.9-6.78,4.35-10.87,4.35c-4.09,0-8.48-1.45-13.17-4.35
						c-4.69-2.9-8.99-7.42-12.91-13.55c-4.09-6.14-7.12-12.96-9.08-20.46c-1.96-7.5-3.2-15.34-3.71-23.53
						c-0.51-8.18-0.39-16.45,0.38-24.8c0.77-8.35,1.83-16.45,3.2-24.3C321.12,731.51,326.23,712.75,333.22,693.49z"/>
					<path class="st0" d="M386.93,789.9c0.34-6.3,1.11-13.55,2.3-21.74c1.19-8.18,2.77-16.62,4.73-25.32
						c1.96-8.69,4.3-17.34,7.04-25.96c2.73-8.61,5.84-16.45,9.33-23.53c3.49-7.07,7.37-13.08,11.64-18.03
						c4.26-4.94,8.95-8.18,14.07-9.72c5.45-1.53,10.14-1.4,14.07,0.39c3.92,1.79,7.37,4.82,10.36,9.08
						c2.98,4.26,5.45,9.55,7.42,15.85c1.96,6.31,3.7,13.13,5.24,20.46c1.53,7.33,2.85,14.92,3.96,22.76
						c1.11,7.84,2.26,15.51,3.45,23.01c1.19,1.2,1.88,2.35,2.05,3.45c0.17,1.11,0.26,2.26,0.26,3.45c2.89,0,5.41,0.22,7.54,0.64
						c2.13,0.43,4.01,1.32,5.63,2.69c1.62,1.37,3.07,3.28,4.34,5.75c1.28,2.47,2.52,5.67,3.71,9.59c1.53,4.78,0,9.46-4.6,14.07
						c2.9,4.09,5.71,8.1,8.44,12.02c2.73,3.93,5.02,7.8,6.91,11.64c1.87,3.84,3.19,7.54,3.96,11.12c0.77,3.58,0.64,7.08-0.38,10.49
						c-1.71,5.63-4.86,9.97-9.46,13.04c-4.6,3.07-9.72,4.6-15.35,4.6s-11.29-1.74-17-5.24c-5.71-3.49-10.53-9.08-14.45-16.75
						c-0.69-1.19-1.33-2.94-1.92-5.24c-0.6-2.3-1.19-4.73-1.79-7.29c-0.6-2.56-1.2-5.11-1.79-7.67c-0.6-2.56-1.24-4.77-1.92-6.65
						h-23.28c0.51,5.8,0.85,11.34,1.02,16.62c0.17,5.29-0.25,10.02-1.28,14.19c-1.02,4.18-2.78,7.67-5.24,10.49
						c-2.47,2.81-6.1,4.73-10.87,5.75c-4.6,1.02-8.57,0.81-11.89-0.64c-3.33-1.44-6.06-3.71-8.19-6.78
						c-2.13-3.07-3.83-6.69-5.11-10.87c-1.28-4.18-2.17-8.48-2.69-12.91C385.82,816.15,385.73,803.88,386.93,789.9z M447.54,771.23
						c-0.51-6.48-1.07-12.53-1.66-18.16c-0.6-5.62-1.28-10.61-2.05-14.96c-0.77-4.35-1.62-7.93-2.56-10.74
						c-0.94-2.82-1.92-4.64-2.94-5.5c-2.05-1.36-3.79-0.9-5.24,1.4c-1.45,2.3-2.64,5.84-3.58,10.61c-0.94,4.77-1.66,10.44-2.17,17
						c-0.51,6.57-0.76,13.34-0.76,20.33H447.54z"/>
					<path class="st0" d="M540.11,713.18c-1.71-6.65-2.39-12.91-2.05-18.8c0.34-5.88,1.57-11.12,3.7-15.73
						c2.13-4.6,5.12-8.35,8.95-11.25c3.84-2.9,8.57-4.77,14.19-5.63c6.3-1.02,11.64,0,15.98,3.07c4.35,3.07,8.4,7.84,12.15,14.32
						c3.75,6.48,7.42,14.67,11,24.55c3.58,9.89,7.75,21.23,12.53,34.01c4.77,12.79,8.4,20.71,10.87,23.78
						c2.47,3.07,4.22,2.98,5.24-0.26c1.02-3.24,1.57-8.7,1.66-16.37c0.08-7.67,0.13-15.85,0.13-24.55c0-8.52,1.06-16.66,3.2-24.42
						c2.13-7.75,4.98-14.36,8.56-19.82c3.58-5.45,7.63-9.37,12.15-11.76c4.51-2.39,9.24-2.47,14.19-0.26
						c4.6,2.05,7.96,4.86,10.1,8.44c2.13,3.58,3.28,7.54,3.46,11.89c0.16,4.35-0.39,9-1.66,13.94c-1.28,4.95-2.94,9.89-4.99,14.83
						c-3.92,9.72-6.86,21.18-8.82,34.4c-1.96,13.21-2.09,27.84-0.38,43.86c0.85,7.84,1.62,15.85,2.3,24.04
						c0.67,8.18,0.42,15.56-0.77,22.12c-1.2,6.57-3.75,11.72-7.67,15.47c-3.93,3.75-10.15,5.2-18.67,4.35
						c-5.63-0.51-11-3.41-16.12-8.7c-5.11-5.28-9.93-11.76-14.45-19.43c-4.52-7.67-8.65-16.11-12.4-25.32
						c-3.75-9.21-7.12-18.07-10.1-26.6c-2.98-8.52-5.5-16.15-7.54-22.89c-2.05-6.73-3.5-11.55-4.35-14.45
						c-1.37-4.26-2.69-6.65-3.96-7.16c-1.28-0.51-2.3,0.38-3.07,2.68c-0.77,2.3-1.15,5.75-1.15,10.36c0,4.61,0.51,9.97,1.53,16.11
						c0.68,4.43,1.4,10.02,2.17,16.75c0.76,6.74,1.23,13.85,1.4,21.36c0.17,7.5-0.09,14.92-0.77,22.25
						c-0.68,7.33-2.05,13.9-4.09,19.69c-2.05,5.8-4.98,10.36-8.82,13.68c-3.83,3.32-8.74,4.64-14.71,3.96
						c-4.77-0.51-8.56-1.87-11.38-4.09c-2.81-2.21-4.82-4.99-6.01-8.31c-1.2-3.33-1.79-7.12-1.79-11.38c0-4.26,0.43-8.65,1.28-13.17
						c0.85-4.52,1.87-9.04,3.07-13.55c1.19-4.52,2.38-8.82,3.58-12.92c2.9-9.72,4.6-19.52,5.11-29.41
						c0.51-9.88,0.6-18.84,0.26-26.85C542.67,730.66,541.65,721.7,540.11,713.18z"/>
					<path class="st0" d="M718.1,817.77c-2.39-5.28-4.52-11.34-6.39-18.16c-1.53-5.8-2.78-12.62-3.71-20.46
						c-0.94-7.84-0.89-16.53,0.13-26.08c1.02-9.37,2.69-18.75,4.98-28.13c2.3-9.38,5.67-18.16,10.1-26.34
						c4.43-8.18,10.06-15.38,16.88-21.61c6.82-6.22,15.25-10.95,25.32-14.19c7.5-2.39,14.36-3.32,20.59-2.81
						c6.22,0.51,11.76,2.05,16.62,4.6c4.86,2.56,8.99,5.84,12.4,9.85c3.41,4.01,6.09,8.14,8.05,12.4c1.96,4.26,3.15,8.53,3.59,12.79
						c0.42,4.26,0.12,7.84-0.9,10.74c-1.37,3.75-3.28,7.03-5.75,9.85s-5.5,4.73-9.08,5.75c-3.58,1.02-7.72,0.77-12.41-0.77
						c-4.69-1.53-9.85-4.77-15.47-9.72c-3.75-3.41-7.59-4.94-11.51-4.6c-3.92,0.34-7.54,2.05-10.87,5.11
						c-3.33,3.07-6.31,7.25-8.95,12.53c-2.65,5.29-4.52,11.3-5.62,18.03c-1.11,6.74-1.37,13.85-0.77,21.35
						c0.6,7.5,2.34,15,5.24,22.51c2.9,7.5,5.63,13,8.19,16.5c2.56,3.5,5.07,5.67,7.54,6.52c2.47,0.85,4.9,0.64,7.29-0.64
						c2.39-1.28,4.82-2.85,7.29-4.73c2.47-1.87,5.12-3.84,7.93-5.88c2.82-2.05,5.92-3.49,9.33-4.35c3.75-0.85,7.55-0.29,11.38,1.66
						c3.84,1.96,7.12,4.86,9.85,8.7c2.72,3.84,4.56,8.23,5.5,13.17c0.93,4.95,0.42,9.89-1.53,14.83
						c-1.96,4.95-5.71,9.59-11.26,13.94c-5.54,4.35-13.51,7.8-23.91,10.36c-5.97,1.53-11.55,2.08-16.75,1.66
						c-5.2-0.43-9.97-1.49-14.32-3.2s-8.36-3.92-12.02-6.65c-3.67-2.72-6.95-5.63-9.85-8.69
						C728.41,836.44,722.7,827.83,718.1,817.77z"/>
					<path class="st0" d="M844.18,789.9c0.34-6.3,1.11-13.55,2.3-21.74c1.19-8.18,2.77-16.62,4.73-25.32
						c1.96-8.69,4.3-17.34,7.04-25.96c2.73-8.61,5.84-16.45,9.33-23.53c3.49-7.07,7.37-13.08,11.64-18.03
						c4.26-4.94,8.95-8.18,14.07-9.72c5.45-1.53,10.14-1.4,14.07,0.39c3.92,1.79,7.37,4.82,10.36,9.08
						c2.98,4.26,5.45,9.55,7.42,15.85c1.96,6.31,3.7,13.13,5.24,20.46c1.53,7.33,2.85,14.92,3.96,22.76
						c1.11,7.84,2.26,15.51,3.45,23.01c1.19,1.2,1.88,2.35,2.05,3.45c0.17,1.11,0.26,2.26,0.26,3.45c2.89,0,5.41,0.22,7.54,0.64
						c2.13,0.43,4.01,1.32,5.63,2.69c1.62,1.37,3.07,3.28,4.34,5.75c1.28,2.47,2.52,5.67,3.71,9.59c1.53,4.78,0,9.46-4.6,14.07
						c2.9,4.09,5.71,8.1,8.44,12.02c2.73,3.93,5.02,7.8,6.91,11.64c1.87,3.84,3.19,7.54,3.96,11.12c0.77,3.58,0.64,7.08-0.38,10.49
						c-1.71,5.63-4.86,9.97-9.46,13.04c-4.6,3.07-9.72,4.6-15.35,4.6c-5.63,0-11.29-1.74-17-5.24c-5.71-3.49-10.53-9.08-14.45-16.75
						c-0.69-1.19-1.33-2.94-1.92-5.24c-0.6-2.3-1.19-4.73-1.79-7.29c-0.6-2.56-1.2-5.11-1.79-7.67c-0.6-2.56-1.24-4.77-1.92-6.65
						h-23.28c0.51,5.8,0.85,11.34,1.02,16.62c0.17,5.29-0.25,10.02-1.28,14.19c-1.02,4.18-2.78,7.67-5.24,10.49
						c-2.47,2.81-6.1,4.73-10.87,5.75c-4.6,1.02-8.57,0.81-11.89-0.64c-3.33-1.44-6.06-3.71-8.19-6.78
						c-2.13-3.07-3.83-6.69-5.11-10.87c-1.28-4.18-2.17-8.48-2.69-12.91C843.06,816.15,842.98,803.88,844.18,789.9z M904.79,771.23
						c-0.51-6.48-1.07-12.53-1.66-18.16c-0.6-5.62-1.28-10.61-2.05-14.96c-0.77-4.35-1.62-7.93-2.56-10.74
						c-0.94-2.82-1.92-4.64-2.94-5.5c-2.05-1.36-3.79-0.9-5.24,1.4c-1.45,2.3-2.64,5.84-3.58,10.61c-0.94,4.77-1.66,10.44-2.17,17
						c-0.51,6.57-0.76,13.34-0.76,20.33H904.79z"/>
				</g>
			</g>
			<path class="st0" d="M783.74,857.79l5.24-10.47h-22.09l-8.98,19.42c3.07-0.51,6.65-1.02,9.2-1.02c7.68,0,11.77,4.09,11.77,9.21
				c0,5.11-4.09,9.72-11,9.72c-4.6,0-9.72-2.05-13.3-5.12l-7.42,17.14c6.65,4.6,15.6,7.67,23.79,7.67
				c17.65,0,30.18-9.97,30.18-25.83C801.13,868.02,794.22,860.6,783.74,857.79z"/>
		</g>
	</g>
</g>
</svg>
