<svg version="1.2" xmlns="http://www.w3.org/2000/svg" viewBox="0 0 1024 1024" width="1024" height="1024"><style>.a{fill:#c59aef}</style><path fill-rule="evenodd" d="m1024 253.7c0.3 224.6-11.9 364.1-35.8 414.5-23.7 49.4-96.2 91.5-216.1 125.7-159.9 45.8-329.1 48.5-490.1 8l-258.8 216.7-2.3-62.1c-1.1-23.9-20.9-587.6-20.9-702.8 0.3-107.5 76.4-201.8 181.1-223.9 96.7-20.1 199.6-23.7 269-23.4 41.1 0.3 83 0.3 124.1 0 69.1-0.3 172 3.3 269 23.4 104.7 22.1 180.8 116.4 180.8 223.9zm-60.6 0.2c0-79.1-56-148.3-132.6-164.5-86.8-18.2-179.7-22.4-245.6-22.4q-5.5 0-10.8 0.3c-41.3 0.3-83.2 0.3-124.8 0q-5-0.3-10.2-0.3c-65.9 0-158.8 4.2-245.9 22.4-76.9 16.2-132.6 85.4-132.6 164.5-0.3 91.5 13.2 484.3 18.5 638.1l187.7-156.8 15.2 3.9c155.1 41.9 318.6 40.5 473.2-3.6 138.9-39.7 170.6-78.6 177.8-93.5 9.1-19 30.3-95.3 30.1-388.1z"/><path class="a" d="m963.4 253.9c0.2 292.8-21 369.1-30.1 388.1-7.2 14.9-38.9 53.8-177.8 93.5-154.6 44.1-318.1 45.5-473.2 3.6l-15.2-3.9-187.7 156.8c-5.3-153.8-18.8-546.6-18.5-638.1 0-79.1 55.7-148.3 132.6-164.5 87.1-18.2 180-22.4 245.9-22.4q5.2 0 10.2 0.3c41.6 0.3 83.5 0.3 124.8 0q5.3-0.3 10.8-0.3c65.9 0 158.8 4.2 245.6 22.4 76.6 16.2 132.6 85.4 132.6 164.5z"/><path  d="m365.2 659.7l-147.7-245.6 199-154.1 37.2 48.2-156.3 120.8 119.9 199.3z"/><path fill-rule="evenodd" d="m257.4 294.2c-29.5 0-53.4-23.9-53.4-53.5 0-29.6 23.9-53.5 53.4-53.5 29.6 0 53.5 23.9 53.5 53.5 0 29.6-23.9 53.5-53.5 53.5z"/><path  d="m646.6 659.7l-52-31.4 119.9-199.3-156.3-120.8 37.2-48.2 199.3 154.1z"/><path fill-rule="evenodd" d="m754.4 294.2c-29.5 0-53.4-23.9-53.4-53.5 0-29.6 23.9-53.5 53.4-53.5 29.6 0 53.5 23.9 53.5 53.5 0 29.6-23.9 53.5-53.5 53.5z"/></svg>